<?xml version="1.0" encoding="utf-8"?>
<!-- Generator: Adobe Illustrator 21.0.0, SVG Export Plug-In . SVG Version: 6.00 Build 0)  -->
<svg version="1.1" id="Layer_1" xmlns="http://www.w3.org/2000/svg" xmlns:xlink="http://www.w3.org/1999/xlink" x="0px" y="0px"
	 width="2000px" height="2000px" viewBox="0 0 2000 2000" style="enable-background:new 0 0 2000 2000;" xml:space="preserve">
<style type="text/css">
	.st0{fill:#FFFFFF;}
	.st1{fill:#FFDE91;}
	.st2{fill:#E24D66;}
	.st3{fill:url(#SVGID_1_);}
	.st4{fill:#FF9CB6;}
	.st5{fill:url(#SVGID_2_);}
	.st6{fill:url(#SVGID_3_);}
	.st7{fill:url(#SVGID_4_);}
	.st8{fill:#9CD8D8;}
	.st9{fill:#191717;}
	.st10{fill:url(#SVGID_5_);}
	.st11{fill:url(#SVGID_6_);}
	.st12{fill:url(#SVGID_7_);}
	.st13{fill:url(#SVGID_8_);}
	.st14{fill:url(#SVGID_9_);}
	.st15{fill:url(#SVGID_10_);}
	.st16{fill:#C1504D;}
	.st17{fill:#332B2D;}
	.st18{fill:#EADCDA;}
	.st19{fill:#DD3E60;}
	.st20{fill:url(#SVGID_11_);}
	.st21{fill:#F5BEBB;}
	.st22{fill:url(#SVGID_12_);}
</style>
<rect class="st0" width="1999.1" height="1999.1"/>
<path class="st1" d="M1875.4,904.1c18.3-90-0.2-185.3-48.4-263.2c-24.4-39.4-56-73.6-93.4-100.9c-41-29.9-88.1-49.8-134.5-69.7
	c-45.3-19.4-90.7-39.2-130.9-68c-31.9-22.8-62.3-52.3-90.7-81.3c-57.3-58.6-111.9-123.4-183.6-165.1
	c-38.4-22.3-80.9-36.3-125.3-39.4c-52-3.7-104.3,8.4-152.1,28.3c-96.6,40.1-174.2,109.3-258.6,169.1
	c-39.8,28.2-81.8,54.9-127.5,72.4c-48.3,18.5-99.4,24.5-149.8,34c-48.6,9.2-96.5,23.9-136.3,54.2c-35.6,27.2-63.6,63-83.2,103.2
	c-44.5,91.5-45.5,193.2-27.2,291.7c20.9,112.7,65,219.6,85,332.5c9.6,54.3,13.3,111,4.1,165.7c-8.8,52.5-27.2,102.7-39.7,154.3
	c-12.5,51.6-19.1,106.1-4.4,158.1c12.1,42.7,37.9,80.8,70.9,110c75.6,66.9,176.4,88.1,275,82.9c114.1-5.9,224-41.8,337.8-50
	c40.9-2.9,82-2.2,122.2,5.2c0.5,14,15,27.6,30.4,18c83.4-51.8,188.1-37.6,277.8-12.3c101,28.5,203,74.1,310.1,68.1
	c83-4.6,172.6-40.6,215.6-115.7c56.7-99.1,4.1-211.2-31.4-307.4c-19.1-51.7-36.8-105.3-41.3-160.6c-4.2-50.5,4.3-98.7,21.3-146.1
	C1799.8,1081.4,1856.1,999.6,1875.4,904.1z"/>
<path class="st2" d="M1752.5,759.9c-2.6,1.6-5.1,3.4-7.4,5.4c1.5-9.4,2.8-18.9,4-28.3c12.1,1.2,25.6,1.1,35.2-7.4
	c7.7-6.8,11.6-19.2,6.3-28.6c-5.4-9.6-17.8-11.5-27.4-7.7c-9.4,3.7-15,11.9-19.3,20.7c0,0-0.1,0-0.1,0c-6.9-11.6-16.7-21.4-28.4-28
	c-10.3-5.9-29.6-11.1-33.6,5.3c-3.2,13.6,11,26.4,21.2,32.5c10.5,6.3,22.6,9,34.7,8c-1.4,12.3-3.2,24.8-5.4,37.2
	c-4.2-8.8-10.5-16.5-18.2-22.5c-9.8-7.5-32.6-18.7-37.5-0.1c-4.1,15.5,7.9,32.2,19.5,41c8.1,6.1,19.3,12.4,29.9,12.6
	c-2.9,12.1-6.2,24-10.1,35.7c-2.3-5.7-5.6-11-9.8-15.6c-8.1-8.8-25.5-19.6-36.2-8.7c-5.3,5.5-4.9,13.7-2.3,20.4
	c2.7,7,6,14.1,10.1,20.4c5.8,8.8,14.4,16,24.4,18.3c-6.1,12.9-13,25.3-21.1,36.9c-2-12.7-5.3-25.1-13.4-35.4
	c-7.2-9.1-24.7-21.5-36.1-11.8c-10.7,9.2-2.9,29.2,3.1,39c7.5,12.3,19.2,21.5,32.9,25.8c-9.1,10.7-19.3,20.7-30.8,29.6
	c-3.6-14.3-9.9-27.9-18.8-39.7c-4.6-6.1-9.9-12.8-17.4-15.4c-6.7-2.4-14.4-1.2-19.3,4.3c-11,12.4-0.3,29,7.4,39.9
	c4.2,6,9.1,11.7,15.7,15.1c6.1,3.2,12.8,4.2,19.6,4.6c0,0.1,0,0.1,0,0.2c-64.1,42.4-148.7,54.4-197.7,118
	c-28.7,37.3-40.8,85.8-33.2,132.2c1.2,7.6,12.8,4.4,11.6-3.2c-6.7-41.1,4-84.2,28.2-117.9c23.2-32.4,58.8-52.2,94.4-68.5
	c33.9-15.5,69.3-28.5,100.6-48.9c4.9,10.8,13.9,19.4,24.4,25.8c13.3,8.2,33,15.7,45.6,1.9c11.9-13.1,1.3-30.9-12.4-37.1
	c-7.9-3.6-16.3-4.7-24.9-5.6c-3.6-0.4-7.2-0.8-10.8-1.1c10.5-8.9,20.2-18.7,28.9-29.3c13.4,9.3,28.9,15,45.2,16.6
	c8.1,0.8,17,0.9,23.9-4c6-4.3,8.9-11.6,6.7-18.8c-4.5-14.6-24.1-19.9-37.5-21.4c-6.3-0.7-12.7-0.4-19,0.7
	c5.3-8.6,10.2-17.5,14.6-26.6c14.4,2.5,29.1,2,43.2-2.1c11.5-3.4,24.8-12.6,19.6-26.4c-4.8-12.8-19.9-15.3-31.5-11.1
	c-6.7,2.4-13,6-19,10.2c5.4-15,9.8-30.3,13.4-45.9c0.7-0.1,1.3-0.3,1.9-0.5c12.9,0.1,26-1.1,36.6-9.2c9.3-7.2,16.8-21.1,10.4-32.6
	C1779.4,745.1,1762.4,753.7,1752.5,759.9z"/>
<path class="st2" d="M708.4,1409.6c-38.9-23.5-76.5-50-107.5-83.6c-15.3-16.5-28.7-34.7-39.4-54.6c-11.8-21.9-20.1-45.6-26.6-69.6
	c-5.7-21.2-10.2-42.8-14.5-64.3c0.6,0.2,1.2,0.2,1.9,0.2c16.3-0.9,33.2-2.1,47.9-9.7c12.9-6.7,23.5-19.5,25.2-34.2
	c1.6-14.4-7.5-30.7-23.6-29.7c-14.6,0.9-29.5,11.1-40,20.7c-6.9,6.3-12.7,13.6-17.4,21.7c-3.3-17.2-6.7-34.4-10.6-51.4c0,0,0,0,0,0
	c16.8-2.4,33.9-5.2,48.6-14c13.6-8,24.2-21,26.2-37c1.7-13.2-5.1-35.2-22.6-28.9c-7.5,2.7-14.9,7.1-21.9,11
	c-7.4,4.2-14.5,9-20.9,14.6c-7.1,6.3-13.2,14.2-17.1,22.9c-4.6-17.5-9.6-34.9-15.2-52c16-3.1,32.1-6.9,45.9-15.7
	c13.8-8.7,25.3-22.8,27.6-39.3c2.2-15.2-4.7-34-22.3-35.1c-16.9-1-33.1,12.1-42.8,24.7c-8.6,11.1-14.1,23.8-18.4,36.9
	c-4.6-12.2-9.6-24.3-15-36.2c-0.2-0.3-0.3-0.7-0.5-1c23.3-15.9,37.6-43.8,36.3-72.1c-0.6-13.2-5.5-34.8-23.4-32.1
	c-7.3,1.1-11.6,7.1-14.1,13.6c-3.2,8.3-5,17.3-6.9,26c-2.7,12.3-4.6,24.7-5.9,37.1c-8.2-14.5-17.5-28.4-28.5-40.8
	c12.9-9,19.7-23.1,21.7-38.5c1.9-14.4,1-34.1-13.1-42.3c-6.6-3.9-14.9-4-21.1,0.7c-5.7,4.3-8.4,11.3-9.6,18.2
	c-2.5,13.4-2.4,27.2-0.2,40.7c-6.1-4.8-12.6-9.1-19.5-12.8c4.1-14.5,5-29.7,2.8-44.7c-1.1-7.5-3-14.8-5.7-21.8
	c-2.3-6-5.6-13.4-13-13.8c-15.4-1-13.6,24.6-13.3,34c0.4,14.8,3.2,29.5,8.1,43.4c-12.7-0.9-25.6,0.9-34.4,11.4
	c-9.2,11-7.2,26.4,4.4,34.8c11.6,8.4,26.7,5.4,36.8-3.9c7.6-7,11.3-16.6,12.4-26.6c9,5.4,17.3,11.9,24.8,19.1
	c-15.8,3.9-32.6,9.2-41.5,23.9c-7.6,12.5-5.7,31.4,8.3,38.6c14.3,7.4,31.1-1.7,38-14.9c5.9-11.2,6-23.5,6.6-35.7
	c10.6,12.3,19.6,26.1,27.5,40.5c-21.4-3.6-44,5.7-55.2,25.8c-3.3,6-5.4,13-3.5,19.9c1.8,6.4,7.1,11,13.7,12
	c12.6,1.9,26.4-6.2,35.8-13.9c7.4-6.2,13.4-14,17.5-22.7c0.8,0.8,1.9,1.4,3.1,1.6c7,15.1,13.3,30.6,18.9,46.3
	c-23.2-13.5-53.9-9.6-71.6,12.2c-8,9.8-18.8,30-5.3,39.9c12,8.9,31.5,0.9,43.2-4.8c15-7.5,27.6-18.6,39.6-30.2
	c6.6,20,12.3,40.2,17.4,60.6c-23.6-13.5-53.6-17.8-78.9-7.4c-7,2.9-13.6,7.6-16.1,15.1c-2.6,7.8,0.5,16.2,6,22
	c12.6,13.2,35.5,10,51.8,8.6c15-1.3,30.2-4.3,43.6-11.1c3.9,17.7,7.4,35.4,10.8,53.2c-10.7-6.6-22.2-11.9-34.2-15.8
	c-14.8-4.9-37.5-12.4-50.8-0.3c-13.7,12.5-2.6,32.5,8.7,42.1c12.4,10.6,28.9,15.6,45,13c13.8-2.2,26.3-10.1,34.8-21.2
	c4.3,21.9,8.7,43.8,14.2,65.4c6.1,24,13.9,47.6,24.7,69.9c9.9,20.2,22.5,39,37,56.2c33.1,39.2,75.4,69.5,119,95.8
	C708.9,1424,715,1413.6,708.4,1409.6z"/>
<g>
	
		<linearGradient id="SVGID_1_" gradientUnits="userSpaceOnUse" x1="1482.8175" y1="884.7429" x2="1482.8175" y2="1268.4718" gradientTransform="matrix(0.7827 0.6225 -0.6225 0.7827 1054.5934 -315.116)">
		<stop  offset="0" style="stop-color:#F77C96"/>
		<stop  offset="1" style="stop-color:#DD3E60"/>
	</linearGradient>
	<path class="st3" d="M1777.9,1472.8c27.2-17,45.5-41.3,46.3-74.1c0.4-14.8-1.9-29.6-2.2-44.4c-0.4-17.7,3.7-33.7,12.8-49
		c16.3-27.6,42.3-48.1,56.5-77.1c10.7-21.9,15.7-49.1,1.7-70.8c-15.5-24.1-47.7-30-74-24.2c-32.7,7.1-58.8,30.1-86.9,46.7
		c-30.7,18.1-62.3,28.1-98.1,27.2c-30.6-0.8-57.9,1-81.3,22.9c-22.4,21-34.7,50.2-51.8,75.1c-8.9,13-19.2,25.4-32.4,34.1
		c-14,9.2-30.2,14.1-46.2,18.4c-31.1,8.2-60.7,15.9-86.3,36.6c-52.4,42.3-73.9,108.9-80.5,173.7c-1.7,16.9-2.7,34-3.8,51
		c0,0.1,0,0.2,0,0.2c-0.2,1.1,0,2.4,0.8,3.6c32.8,50.6,86.1,86.4,145.1,98.4c59.4,12.1,121.6-2.3,170.9-37.1
		c24.1-17,44.8-38.6,60.6-63.5c19.9-31.6,28.8-71.3,57.1-97.2C1712.2,1499.2,1748.3,1491.3,1777.9,1472.8z"/>
	<path class="st4" d="M1692.8,1408.3c-27.5,7.5-55.8,8.7-83.7,3.6c12.4-13.8,24.6-27.7,37-41.5c47.2-52.6,96.6-104,157-141.4
		c3.4-2.1-0.1-7.3-3.5-5.2c-61.2,37.9-110.3,89.3-158,142.3c-4.3-25.7-2.8-51.6,4.7-76.7c1.1-3.8-5-5-6.1-1.1
		c-8,26.8-9.4,54.6-4.1,82c0.1,0.5,0.3,1,0.6,1.4c-11.9,13.3-23.8,26.7-35.7,40.1c0,0,0,0-0.1,0.1c-23.1,25.7-46.5,51.1-71.5,74.7
		c-23.1,21.9-47.7,42.3-74.4,59.8c-10.7,7-21.7,13.4-32.9,19.3c-0.5-30.5,4.5-61.2,16.6-89.2c1.6-3.7-4-6.4-5.6-2.7
		c-12.9,29.9-18,62.6-17.1,95.1c-15.7,8-31.9,15.2-48.2,21.9c-57.3,23.4-115.9,43.8-164.7,83.4c-52.9,42.9-92.1,100.8-112.5,165.7
		c-1.2,3.8,4.9,4.9,6.1,1.1c19.2-60.9,55.6-115.7,104.3-157c48.4-41.2,107.3-62.3,165.4-85.9c4.6-1.9,9.2-3.8,13.7-5.8
		c0.2,0.2,0.4,0.3,0.7,0.4c28.1,13.1,57.6,21.2,88.3,25.4c4,0.5,5.1-5.6,1.1-6.1c-28.6-3.9-56.1-11.2-82.5-23
		c47.6-21.4,90.8-48.3,130.3-83.4c30.8-27.3,58.8-57.4,86.2-88c30.2,6.1,60.9,5,90.6-3.1C1698.7,1413.1,1696.7,1407.2,1692.8,1408.3
		z"/>
</g>
<g>
	
		<linearGradient id="SVGID_2_" gradientUnits="userSpaceOnUse" x1="1240.9475" y1="838.3143" x2="1240.9475" y2="1135.3999" gradientTransform="matrix(0.9594 0.2821 -0.2821 0.9594 462.8758 -49.7595)">
		<stop  offset="0" style="stop-color:#F77C96"/>
		<stop  offset="1" style="stop-color:#DD3E60"/>
	</linearGradient>
	<path class="st5" d="M1548.5,1195.3c14.6-20.2,20.6-42.9,11.6-66.6c-4.1-10.8-10-20.7-14.5-31.2c-5.4-12.6-7.1-25.3-5.1-38.9
		c3.7-24.5,16.4-46.8,18.1-71.7c1.3-18.8-3.1-39.8-19.4-51.3c-18.1-12.8-42.9-7.6-60.1,4.2c-21.4,14.6-33.4,38.7-48.7,58.8
		c-16.7,21.9-36.5,38.3-62.4,48.1c-22.2,8.4-41.2,17.6-51.6,40.1c-9.9,21.6-10.3,46.1-15.3,69c-2.6,11.9-6.4,23.8-13.3,33.9
		c-7.3,10.7-17.5,18.9-27.8,26.6c-19.9,14.9-38.9,29.1-51.2,51.4c-25.2,45.6-21.3,99.7-7.1,148.1c3.7,12.7,7.9,25.2,12.1,37.7
		c0,0.1,0.1,0.1,0.1,0.2c0.2,0.9,0.7,1.7,1.6,2.4c38.3,26.7,86.9,36.9,132.8,28.3c46.1-8.6,86.5-37.1,111.8-76.4
		c12.3-19.2,20.9-40.7,24.9-63.2c5.1-28.5-0.1-59.6,12.6-86.4C1509.2,1233.4,1532.7,1217.1,1548.5,1195.3z"/>
	<path class="st4" d="M1468.7,1173.8c-17.5,13.4-37.5,22.5-59,27c4.8-13.5,9.6-27.1,14.4-40.5c18.5-51.4,39-102.7,71.4-147.2
		c1.8-2.5-2.2-5.2-4-2.7c-32.8,45-53.1,96.2-71.8,148.1c-10.6-17.2-17-36.2-19-56.4c-0.3-3.1-5-2.1-4.7,1c2.1,21.5,9.2,41.9,20.9,60
		c0.2,0.4,0.5,0.6,0.8,0.8c-4.7,13-9.3,26.1-14,39.1c0,0,0,0,0,0.1c-9.1,25.2-18.5,50.2-29.5,74.4c-10.2,22.4-21.9,44.3-35.9,64.6
		c-5.6,8.1-11.6,15.9-18,23.4c-9.2-21.7-14.6-45.2-14.1-68.8c0.1-3.1-4.7-3.4-4.8-0.3c-0.6,25.2,5.4,50.2,15.4,73.2
		c-8.9,10.3-18.4,20.2-28.2,29.7c-34.3,33.5-70.4,65.2-93.8,107.8c-25.4,46.2-36.7,99.1-32.4,151.6c0.2,3.1,5,2.1,4.7-1
		c-4-49.3,6.2-99.2,29-143c22.7-43.6,58.8-76,93.6-109.8c2.8-2.7,5.5-5.4,8.2-8.2c0.2,0.1,0.4,0.1,0.6,0.1c24,1.2,47.5-1.6,70.7-7.5
		c3-0.8,2.1-5.5-1-4.7c-21.7,5.6-43.5,8.3-65.9,7.6c27.9-29.2,51-61.1,69.1-97.8c14.1-28.6,25.4-58.3,36.2-88.3
		c23.4-4.4,45.1-14.1,64.1-28.6C1474.4,1175.5,1471.2,1171.9,1468.7,1173.8z"/>
</g>
<g>
	
		<linearGradient id="SVGID_3_" gradientUnits="userSpaceOnUse" x1="1643.3101" y1="1070.2263" x2="1643.3101" y2="1453.9552" gradientTransform="matrix(-0.7223 0.6915 0.6915 0.7223 816.2363 -348.5955)">
		<stop  offset="0" style="stop-color:#F77C96"/>
		<stop  offset="1" style="stop-color:#DD3E60"/>
	</linearGradient>
	<path class="st6" d="M368.1,1784.8c30.5,23.2,43,61.9,65.7,91.6c17.9,23.4,40.6,43,66.1,57.7c52.3,30.1,115.6,38.8,173.6,21.3
		c57.7-17.4,107.5-57.9,135.5-111.3c0.7-1.3,0.8-2.6,0.4-3.7c0-0.1,0-0.2,0-0.2c-2.6-16.8-5.2-33.7-8.4-50.4
		c-12.5-63.9-40-128.3-96.1-165.6c-27.4-18.2-57.5-23.2-89.3-28.5c-16.4-2.7-33-6.1-47.7-14.1c-14-7.5-25.3-18.9-35.4-31
		c-19.3-23.3-34.3-51.2-58.5-70.1c-25.3-19.7-52.6-19-83.1-15.4c-35.5,4.2-67.9-2.8-100.2-18.1c-29.5-13.9-57.6-34.4-90.8-38.5
		c-26.7-3.3-58.2,5.5-71.4,30.9c-11.9,22.9-4.4,49.5,8.2,70.4c16.8,27.6,44.6,45.6,63.3,71.6c10.4,14.4,15.9,30,17.2,47.6
		c1.1,14.8,0.1,29.7,1.9,44.4c3.8,32.6,24.2,55.1,52.9,69.5C303.2,1758.7,339.9,1763.3,368.1,1784.8z"/>
	<path class="st4" d="M679.1,1825.4c4.7,1.5,9.4,3.1,14.2,4.5c60,18.1,120.6,33.8,172.5,70.4c37.7,26.5,69.8,60.7,94,99.8h7.2
		c-26.2-43.4-61.7-81-104.2-109.3c-52.2-34.9-112.4-49.8-171.6-67.9c-16.9-5.2-33.7-10.8-50-17.4c-2.1-32.4-10.2-64.5-25.8-93.1
		c-1.9-3.5-7.3-0.3-5.4,3.2c14.6,26.8,22.4,57,24.7,87.3c-11.7-4.9-23.3-10.2-34.5-16.2c-28.1-15-54.5-33.1-79.5-52.7
		c-27-21.2-52.7-44.3-78-67.8c0,0,0,0-0.1-0.1c-13.1-12.2-26.2-24.4-39.2-36.6c0.2-0.4,0.4-0.9,0.5-1.4c2.7-27.8-1.2-55.4-11.6-81.3
		c-1.5-3.7-7.5-2-6,1.7c9.7,24.3,13.7,49.9,11.7,76c-52.3-48.5-105.9-95.1-170.3-127.2c-3.6-1.8-6.6,3.7-3,5.5
		c63.6,31.8,117.5,78.4,169.3,126.5c13.6,12.6,27.1,25.3,40.6,37.9c-27.3,7.6-55.7,9.1-83.7,4.1c-3.9-0.7-5.4,5.4-1.5,6.1
		c30.3,5.4,61,3.6,90.5-5.2c30.1,28,60.8,55.3,93.9,79.7c42.6,31.4,88.1,54.2,137.4,71.2c-25.2,14.1-51.9,24-80,30.4
		c-3.9,0.9-2.2,6.9,1.7,6c30.2-7,58.8-17.7,85.6-33.3C678.8,1825.7,679,1825.5,679.1,1825.4z"/>
</g>
<g>
	
		<linearGradient id="SVGID_4_" gradientUnits="userSpaceOnUse" x1="1319.8326" y1="1070.5623" x2="1319.8326" y2="1367.6478" gradientTransform="matrix(-0.9295 0.3688 0.3688 0.9295 1429.7775 -138.5693)">
		<stop  offset="0" style="stop-color:#F77C96"/>
		<stop  offset="1" style="stop-color:#DD3E60"/>
	</linearGradient>
	<path class="st7" d="M531.8,1503.6c15.1,25.5,12.8,57,20.5,84.9c6.1,22,16.6,42.7,30.6,60.6c28.7,36.9,71.6,61.5,118.3,65.9
		c46.5,4.3,94-10.2,129.6-40.3c0.9-0.7,1.3-1.6,1.4-2.5c0-0.1,0-0.1,0.1-0.2c3-12.8,6.1-25.7,8.6-38.6
		c9.7-49.5,8.7-103.7-20.6-146.8c-14.3-21-34.5-33.4-55.7-46.5c-10.9-6.7-21.9-14-30.1-24c-7.8-9.5-12.7-20.9-16.4-32.6
		c-7.1-22.3-9.7-46.7-21.6-67.3c-12.4-21.5-32.2-28.9-55.1-35.2c-26.7-7.3-47.9-21.8-66.6-42.1c-17.1-18.6-31.3-41.5-53.9-54.1
		c-18.2-10.2-43.4-13-60.3,1.4c-15.2,13-17.6,34.2-14.6,52.9c4,24.7,18.7,45.7,24.6,69.8c3.3,13.3,2.7,26.1-1.5,39.2
		c-3.6,10.9-8.6,21.3-11.6,32.4c-6.8,24.5,1.3,46.6,17.7,65.3C492.8,1466,517.8,1480,531.8,1503.6z"/>
	<path class="st4" d="M552.6,1416.9c18.7,11.7,39.4,19,61.2,21.4c-6-13-12-26.1-18.1-39c-23.2-49.5-48.2-98.7-84.6-140
		c-2.1-2.3,1.7-5.4,3.7-3.1c36.8,41.8,61.7,90.9,85.1,140.9c9-18.1,13.6-37.6,13.7-57.9c0-3.1,4.8-2.6,4.8,0.5
		c-0.1,21.6-5.3,42.6-15.3,61.7c-0.2,0.4-0.5,0.7-0.8,0.9c5.8,12.6,11.6,25.2,17.5,37.7c0,0,0,0,0,0.1c11.3,24.2,23,48.3,36.2,71.4
		c12.2,21.4,25.9,42.1,41.7,61c6.3,7.6,13,14.8,20,21.7c7.2-22.5,10.4-46.3,7.7-69.8c-0.4-3.1,4.4-3.8,4.8-0.7
		c2.9,25-0.7,50.4-8.6,74.3c9.8,9.5,20.2,18.4,30.8,27c37.2,30.2,76.1,58.5,103.3,98.7c29.5,43.6,45.6,95.4,46.2,148
		c0,3.1-4.8,2.5-4.8-0.5c-0.5-49.4-15.2-98.2-42-139.8c-26.6-41.4-65.5-70.3-103.3-100.7c-3-2.4-6-4.9-8.9-7.4
		c-0.2,0.1-0.4,0.1-0.6,0.2c-23.8,3.4-47.4,2.8-71.1-1c-3.1-0.5-2.5-5.3,0.5-4.8c22.1,3.6,44.1,4.3,66.3,1.5
		c-30.4-26.5-56.4-56.2-77.8-91.1c-16.7-27.2-30.7-55.7-44.1-84.6c-23.7-2.2-46.2-9.9-66.4-22.6
		C547.1,1419.2,550,1415.3,552.6,1416.9z"/>
</g>
<path class="st8" d="M1586.3,658.4c-5.5-6.3-13.8-9-21.7-10.7c-9.3-2-18.8-3.3-28.3-3.8c-4.9-0.3-9.7-0.4-14.6-0.2
	c1.3-0.7,2.7-1.5,4-2.2c13.3-7.8,31.7-19.8,33.8-36.6c1-8.1-2.2-16.5-9.5-20.6c-6.7-3.8-15.1-3.1-22.3-1.2
	c-14.8,3.9-28.3,13-38.2,24.7c-1.7,2-3.3,4.2-4.8,6.3c0.3-8.2,0.4-16.5,0.3-24.7c-0.1-10.6-0.5-21.3-1.6-31.9
	c-0.8-7.2-2.2-14.6-6.3-20.7c-4.3-6.5-11.3-10.6-19.2-9.4c-8.6,1.3-15.2,8.1-18.1,16.1c-3.2,9-2.1,19-1.1,28.2
	c1.1,9.6,2.7,19.1,5,28.5c2.1,8.5,4.8,16.9,7.9,25.1c-5.6-7.2-10.6-15-17.1-21.3c-10.4-10.1-24.9-16.1-39-10.1
	c-14.5,6.1-17.8,22.3-10.4,35.4c7.5,13.3,22.3,22.2,36.5,26.7c3.5,1.1,7.2,1.9,10.8,2.5c-2.3,1.1-4.7,2.3-6.9,3.7
	c-11.8,7.1-21.3,18.7-21.3,33.1c0,13.3,9.6,23.9,22.5,26c13.4,2.2,25.6-4.1,33.6-14.7c2.2-2.9,3.9-5.9,5.4-9c0.5,1.9,1,3.9,1.5,5.8
	c3.3,12,7.3,28.4,19.3,34.8c10.9,5.8,23.7,0.4,30.7-8.8c8.5-11.2,6.4-25.9,0.1-37.6c-2.2-4.1-5-7.8-8-11.3c4.6,1.9,9.4,3.5,14.2,4.9
	c8.3,2.5,16.8,4.1,25.5,5.2c8,1,16.4,1.8,24.4,0.5c6.7-1.1,13.2-4.3,16.4-10.5C1593.8,673.3,1591.4,664.4,1586.3,658.4z"/>
<path class="st8" d="M1676.2,1749.8c-5.5-6.3-13.8-9-21.7-10.7c-9.3-2-18.8-3.3-28.3-3.8c-4.9-0.3-9.7-0.4-14.6-0.2
	c1.3-0.7,2.7-1.5,4-2.2c13.3-7.8,31.7-19.8,33.8-36.6c1-8.1-2.2-16.5-9.5-20.6c-6.7-3.8-15.1-3.1-22.3-1.2
	c-14.8,3.9-28.3,13-38.2,24.7c-1.7,2-3.3,4.2-4.8,6.3c0.3-8.2,0.4-16.5,0.3-24.7c-0.1-10.6-0.5-21.3-1.6-31.9
	c-0.8-7.2-2.2-14.6-6.2-20.7c-4.3-6.5-11.3-10.6-19.2-9.4c-8.6,1.3-15.2,8.1-18.1,16.1c-3.2,9-2.1,19-1.1,28.2
	c1.1,9.6,2.7,19.1,5,28.5c2.1,8.5,4.8,16.9,7.9,25.1c-5.6-7.2-10.6-15-17.1-21.3c-10.4-10.1-24.9-16.1-39-10.1
	c-14.5,6.1-17.8,22.3-10.4,35.4c7.5,13.3,22.3,22.2,36.5,26.7c3.5,1.1,7.2,1.9,10.8,2.5c-2.3,1.1-4.7,2.3-6.9,3.7
	c-11.8,7.1-21.3,18.7-21.3,33.1c0,13.3,9.6,23.9,22.5,26c13.4,2.2,25.6-4.1,33.6-14.7c2.2-2.9,3.9-5.9,5.4-9c0.5,1.9,1,3.9,1.5,5.8
	c3.3,12,7.3,28.4,19.3,34.8c10.9,5.8,23.7,0.4,30.7-8.8c8.5-11.2,6.4-25.9,0.1-37.6c-2.2-4.1-5-7.8-8-11.3c4.6,1.9,9.4,3.5,14.2,4.9
	c8.3,2.5,16.8,4.1,25.5,5.2c8,1,16.4,1.8,24.4,0.5c6.7-1.1,13.2-4.3,16.4-10.5C1683.7,1764.7,1681.4,1755.8,1676.2,1749.8z"/>
<path class="st8" d="M1885.3,1113.8c-6.4-3.4-14-2.9-21-1.8c-8.2,1.3-16.3,3.3-24.2,5.9c-4,1.3-8,2.8-11.9,4.5c0.8-1,1.7-2,2.5-3.1
	c8.3-10.6,19.4-26.1,15.8-40.4c-1.7-6.9-7-12.6-14.3-13.6c-6.6-0.9-13.2,2.3-18.4,6.1c-10.7,7.9-18.8,19.5-23.1,32.1
	c-0.7,2.2-1.4,4.4-1.9,6.7c-2.4-6.8-4.9-13.5-7.6-20.1c-3.5-8.6-7.2-17.1-11.4-25.3c-2.9-5.6-6.5-11.1-11.7-14.8
	c-5.5-3.9-12.5-5-18.6-1.5c-6.5,3.8-9.7,11.4-9.5,18.8c0.2,8.3,4.3,16.1,8.1,23.2c3.9,7.4,8.3,14.6,13.1,21.5
	c4.4,6.2,9.2,12.2,14.4,17.8c-6.8-4-13.4-8.8-20.6-11.9c-11.6-4.9-25.3-5.1-34.8,4.2c-9.8,9.6-7.3,23.7,2.9,32
	c10.3,8.4,25.1,10.9,38,10c3.2-0.2,6.4-0.7,9.6-1.4c-1.5,1.6-3,3.3-4.4,5.2c-7.3,9.5-11.3,22-6.7,33.6c4.2,10.7,15.3,16.3,26.5,13.9
	c11.5-2.4,19.4-11.5,22.5-22.6c0.8-3,1.3-6,1.5-9c1,1.4,2,2.8,3.1,4.2c6.5,8.7,15,20.7,26.7,22.1c10.7,1.3,19.3-7.2,22.1-16.9
	c3.3-11.7-3-23-11.9-30.5c-3.1-2.6-6.5-4.8-10.1-6.6c4.3,0,8.7-0.1,13-0.5c7.5-0.7,15-2,22.3-3.9c6.8-1.7,13.9-3.7,19.9-7.3
	c5-3,9.3-7.7,9.9-13.7C1896.1,1123.4,1891.4,1116.9,1885.3,1113.8z"/>
<path class="st8" d="M338.5,1257.7c-3.8,5.1-4.4,11.8-4.4,17.9c0,7.3,0.7,14.5,1.8,21.7c0.6,3.7,1.3,7.3,2.2,10.9
	c-0.8-0.9-1.5-1.7-2.3-2.6c-8-8.6-20-20.3-32.8-19.1c-6.2,0.6-11.9,4.3-13.7,10.5c-1.7,5.6,0.2,11.8,2.8,16.8
	c5.4,10.4,14.3,18.9,24.6,24.3c1.8,0.9,3.6,1.8,5.5,2.5c-6.2,1.2-12.3,2.4-18.4,3.8c-7.9,1.8-15.8,3.9-23.5,6.4
	c-5.2,1.7-10.5,4.1-14.4,8.1c-4.1,4.2-6,10.2-3.8,15.8c2.4,6.2,8.6,10,14.9,10.8c7.2,0.9,14.5-1.6,21.2-3.9c7-2.4,13.8-5.2,20.4-8.4
	c6-3,11.8-6.3,17.4-10c-4.4,5.4-9.4,10.4-13.1,16.2c-5.8,9.4-7.8,21.2-1.1,30.6c7,9.8,19.5,9.6,28.1,1.9
	c8.6-7.8,12.8-20.2,13.8-31.6c0.2-2.8,0.3-5.7,0.1-8.5c1.2,1.6,2.5,3.1,3.9,4.5c7.3,7.6,17.5,12.8,28.2,10.4
	c9.9-2.2,16.2-11,15.6-21c-0.5-10.3-7.3-18.4-16.5-22.6c-2.5-1.1-5-1.9-7.6-2.5c1.4-0.7,2.7-1.4,4.1-2.1
	c8.4-4.4,19.9-10.1,22.7-20.1c2.5-9.1-3.6-17.7-11.7-21.4c-9.7-4.5-20.3-0.5-28,6.1c-2.7,2.3-5,5-7.1,7.8c0.6-3.8,1.1-7.5,1.3-11.3
	c0.5-6.6,0.3-13.2-0.3-19.8c-0.6-6.1-1.3-12.5-3.6-18.2c-1.9-4.8-5.4-9.1-10.5-10.5C348.3,1249.6,342,1252.8,338.5,1257.7z"/>
<path class="st8" d="M646.2,501.4c-4.7,6.3-5.4,14.5-5.4,22.1c0,9,0.8,17.9,2.3,26.8c0.7,4.5,1.7,9,2.8,13.5
	c-0.9-1.1-1.9-2.1-2.9-3.2c-9.9-10.7-24.7-25.1-40.5-23.6c-7.7,0.7-14.7,5.4-17,12.9c-2.1,6.9,0.2,14.5,3.4,20.7
	c6.6,12.8,17.7,23.4,30.4,30c2.2,1.2,4.5,2.2,6.8,3.1c-7.6,1.4-15.2,3-22.8,4.8c-9.7,2.3-19.5,4.8-29,8c-6.4,2.2-12.9,5-17.7,10
	c-5.1,5.2-7.4,12.5-4.7,19.6c2.9,7.6,10.6,12.3,18.4,13.3c8.9,1.1,17.9-1.9,26.2-4.8c8.6-2.9,17-6.4,25.1-10.4
	c7.4-3.7,14.6-7.8,21.5-12.4c-5.4,6.6-11.6,12.8-16.1,20c-7.2,11.6-9.7,26.1-1.3,37.8c8.6,12.1,24.1,11.8,34.7,2.3
	c10.7-9.6,15.9-25,17-39c0.3-3.5,0.3-7,0.1-10.5c1.5,1.9,3.1,3.8,4.8,5.6c9,9.4,21.6,15.8,34.8,12.8c12.2-2.7,20-13.6,19.3-26
	c-0.7-12.7-9-22.7-20.4-27.9c-3.1-1.4-6.2-2.4-9.4-3.1c1.7-0.8,3.4-1.7,5-2.6c10.4-5.5,24.6-12.5,28.1-24.8
	c3.1-11.2-4.5-21.9-14.4-26.4c-12-5.5-25.1-0.6-34.5,7.6c-3.4,2.9-6.2,6.2-8.7,9.6c0.8-4.6,1.3-9.3,1.6-14
	c0.6-8.2,0.4-16.3-0.4-24.4c-0.7-7.6-1.6-15.4-4.5-22.5c-2.4-5.9-6.7-11.2-13-12.9C658.4,491.5,650.7,495.5,646.2,501.4z"/>
<path class="st8" d="M691.7,218.8c-3.1,4.1-3.6,9.6-3.5,14.6c0,5.9,0.5,11.8,1.5,17.6c0.5,3,1.1,5.9,1.8,8.9
	c-0.6-0.7-1.2-1.4-1.9-2.1c-6.5-7-16.2-16.5-26.7-15.5c-5.1,0.5-9.7,3.5-11.2,8.5c-1.4,4.6,0.1,9.6,2.3,13.6
	c4.4,8.4,11.7,15.4,20,19.8c1.5,0.8,3,1.4,4.5,2.1c-5,0.9-10,2-15,3.1c-6.4,1.5-12.8,3.1-19.1,5.2c-4.2,1.4-8.5,3.3-11.7,6.6
	c-3.4,3.5-4.9,8.3-3.1,12.9c1.9,5,7,8.1,12.1,8.8c5.8,0.7,11.8-1.3,17.2-3.1c5.7-1.9,11.2-4.2,16.6-6.9c4.9-2.4,9.6-5.2,14.1-8.2
	c-3.6,4.4-7.7,8.4-10.6,13.2c-4.7,7.6-6.4,17.2-0.9,24.9c5.7,8,15.9,7.8,22.8,1.5c7-6.3,10.4-16.4,11.2-25.7
	c0.2-2.3,0.2-4.6,0.1-6.9c1,1.3,2,2.5,3.1,3.7c5.9,6.2,14.2,10.4,22.9,8.5c8-1.8,13.1-9,12.7-17.1c-0.4-8.4-5.9-14.9-13.4-18.4
	c-2-0.9-4.1-1.6-6.2-2c1.1-0.5,2.2-1.1,3.3-1.7c6.8-3.6,16.2-8.3,18.5-16.4c2.1-7.4-3-14.4-9.5-17.4c-7.9-3.6-16.5-0.4-22.8,5
	c-2.2,1.9-4.1,4.1-5.8,6.3c0.5-3.1,0.9-6.1,1.1-9.2c0.4-5.4,0.2-10.7-0.3-16.1c-0.5-5-1.1-10.2-3-14.8c-1.6-3.9-4.4-7.4-8.6-8.5
	C699.7,212.3,694.6,214.9,691.7,218.8z"/>
<path class="st8" d="M1157.8,259.1c-5,6.7-5.8,15.4-5.7,23.5c0,9.5,0.9,19.1,2.4,28.5c0.8,4.8,1.8,9.6,2.9,14.3
	c-1-1.1-2-2.3-3.1-3.4c-10.5-11.3-26.2-26.7-43.1-25.1c-8.2,0.8-15.6,5.7-18,13.8c-2.2,7.4,0.2,15.5,3.6,22.1
	c7.1,13.6,18.8,24.9,32.4,31.9c2.4,1.2,4.8,2.3,7.2,3.3c-8.1,1.5-16.2,3.2-24.2,5.1c-10.4,2.4-20.7,5.1-30.8,8.5
	c-6.8,2.3-13.8,5.4-18.9,10.6c-5.4,5.6-7.9,13.4-5,20.8c3.1,8.1,11.2,13.1,19.6,14.2c9.5,1.2,19-2.1,27.8-5.1
	c9.1-3.1,18.1-6.8,26.8-11.1c7.9-3.9,15.5-8.3,22.8-13.2c-5.8,7.1-12.4,13.6-17.2,21.3c-7.6,12.3-10.3,27.8-1.4,40.3
	c9.2,12.9,25.7,12.6,36.9,2.5c11.4-10.3,16.9-26.6,18.1-41.5c0.3-3.7,0.3-7.4,0.1-11.1c1.6,2.1,3.3,4,5.1,5.9
	c9.5,10,22.9,16.8,37,13.7c13-2.9,21.2-14.5,20.5-27.6c-0.7-13.6-9.6-24.2-21.7-29.7c-3.3-1.5-6.6-2.6-10-3.3
	c1.8-0.9,3.6-1.8,5.4-2.7c11.1-5.8,26.2-13.3,29.9-26.4c3.3-11.9-4.8-23.3-15.3-28.1c-12.8-5.9-26.7-0.6-36.8,8
	c-3.6,3.1-6.6,6.6-9.3,10.3c0.8-4.9,1.4-9.9,1.7-14.9c0.6-8.7,0.4-17.4-0.4-26c-0.7-8.1-1.7-16.4-4.8-24
	c-2.5-6.3-7.1-11.9-13.8-13.7C1170.7,248.5,1162.5,252.7,1157.8,259.1z"/>
<path class="st8" d="M137,727.4c-4,3.6-5.6,9-6.6,14.1c-1.2,6-1.9,12.1-2.1,18.3c-0.1,3.1-0.1,6.3,0,9.4c-0.5-0.8-1-1.7-1.5-2.5
	c-5.2-8.5-13.2-20.1-24-21.3c-5.2-0.6-10.6,1.6-13.1,6.4c-2.3,4.4-1.8,9.8-0.5,14.4c2.7,9.5,8.7,18.1,16.4,24.2
	c1.3,1.1,2.7,2.1,4.1,3c-5.3-0.1-10.6,0-15.9,0.1c-6.8,0.2-13.7,0.6-20.5,1.4c-4.6,0.6-9.4,1.6-13.2,4.3c-4.1,2.8-6.6,7.4-5.8,12.5
	c0.9,5.5,5.4,9.7,10.6,11.4c5.8,1.9,12.2,1.1,18.2,0.3c6.2-0.8,12.3-2,18.3-3.6c5.5-1.5,10.8-3.3,16.1-5.4c-4.5,3.7-9.5,7-13.5,11.2
	c-6.4,6.8-10,16.2-6,25.2c4.1,9.3,14.6,11.2,22.9,6.2c8.5-5,14-14.6,16.7-23.8c0.7-2.3,1.2-4.6,1.5-7c0.7,1.5,1.5,3,2.4,4.4
	c4.7,7.5,12.3,13.5,21.6,13.3c8.5-0.2,15.2-6.5,16.4-14.8c1.3-8.6-3-16.4-9.9-21.4c-1.9-1.4-3.8-2.4-5.9-3.3c1.2-0.3,2.5-0.7,3.7-1
	c7.7-2.3,18.2-5.1,22.2-12.9c3.6-7.1-0.1-15.3-6.1-19.6c-7.3-5.3-16.7-3.8-24.2,0.4c-2.6,1.5-5,3.3-7.2,5.3c1.1-3,2.1-6.1,3-9.2
	c1.5-5.4,2.4-10.9,3-16.4c0.5-5.2,1-10.6,0-15.7c-0.8-4.3-2.9-8.4-7-10.4C146.5,722.3,140.8,723.9,137,727.4z"/>
<g>
	<path class="st9" d="M854.1,614L747.9,793.2l-17.1,173.8l-5.8,65.6l48.3,28.3l331.3,88.2c0,0,25.4-24.8,88.1-18.6
		c62.6,6.2,133.9-16.6,144.3-49.7c10.4-33.1-11.2-153.1-11.2-153.1L1363,806l-107.6-223.9l-90.1-147.9c0,0-178.1-1.1-189.9,9.3
		S854.1,614,854.1,614z"/>
	<linearGradient id="SVGID_5_" gradientUnits="userSpaceOnUse" x1="739.1818" y1="731.2266" x2="797.9441" y2="731.2266">
		<stop  offset="0" style="stop-color:#DB746D"/>
		<stop  offset="1" style="stop-color:#C1504D"/>
	</linearGradient>
	<path class="st10" d="M821,657.8c0,0-44.5-39.3-71.7,0c-27.2,39.3,1,200.7,76.8,156.7l52.1-142.3L821,657.8z"/>
	<linearGradient id="SVGID_6_" gradientUnits="userSpaceOnUse" x1="1027.2596" y1="1594.5768" x2="1027.2596" y2="865.7077">
		<stop  offset="0" style="stop-color:#DB746D"/>
		<stop  offset="1" style="stop-color:#C1504D"/>
	</linearGradient>
	<path class="st11" d="M870.3,905.7c0,0-21.8,176.1-76,256.5c-54.2,80.4-106.5,158.8-106.5,239.2c0,80.4,123.3,478.2,119.6,597.9
		h439.1c0,0,33.6-287.7,97.2-394.2c63.5-106.5-18.7-213-74.7-248.5c-56.1-35.5-174.7-142.6-185.5-216.5c-10.8-73.9-5-152.8-5-152.8
		L870.3,905.7z"/>
	<linearGradient id="SVGID_7_" gradientUnits="userSpaceOnUse" x1="1113.7949" y1="757.4283" x2="707.6701" y2="596.1832">
		<stop  offset="0" style="stop-color:#DB746D"/>
		<stop  offset="1" style="stop-color:#C1504D"/>
	</linearGradient>
	<path class="st12" d="M1054.5,452.7c-91.2-3.7-176,47.6-215,130.2c-11.3,23.8-19.2,51-19.8,80.9c-2.5,111.5-12.3,214.5,106.6,296.6
		s174.1,80.9,239,9.8s101.7-163,80.9-291.7C1229.9,577.6,1184.3,458,1054.5,452.7z"/>
	<linearGradient id="SVGID_8_" gradientUnits="userSpaceOnUse" x1="848.0974" y1="1963.8387" x2="941.5967" y2="1963.8387">
		<stop  offset="0" style="stop-color:#F5BDBC"/>
		<stop  offset="1" style="stop-color:#F09594"/>
	</linearGradient>
	<path class="st13" d="M801.3,1928.4c4.3,28.6,6.7,52.9,6.1,70.9h439.1c0,0,3.3-28.5,9.9-70.9H801.3z"/>
	<g>
		<linearGradient id="SVGID_9_" gradientUnits="userSpaceOnUse" x1="1246.5405" y1="1999.1962" x2="1246.5558" y2="1999.1962">
			<stop  offset="0" style="stop-color:#9CD8D8"/>
			<stop  offset="1" style="stop-color:#61B7B6"/>
		</linearGradient>
		<path class="st14" d="M1246.6,1999.1c0,0.1,0,0.1,0,0.1C1246.5,1999.2,1246.5,1999.2,1246.6,1999.1z"/>
		<linearGradient id="SVGID_10_" gradientUnits="userSpaceOnUse" x1="1029.533" y1="1515.4415" x2="930.5923" y2="1973.6178">
			<stop  offset="0" style="stop-color:#9CD8D8"/>
			<stop  offset="1" style="stop-color:#61B7B6"/>
		</linearGradient>
		<path class="st15" d="M1343.7,1605.1c63.5-106.5-18.7-213-74.7-248.5c-42.3-26.8-120.3-94.4-160.6-157.7
			c-3.3-5.3-2.6-12.1,1.9-16.5l0.1-0.1c12.8-12.7,29.9-20.4,41.5-34.5c12-14.6,16.8-33,8.5-50.7c-8.8-18.7-29.7-23.7-47.5-14.9
			c-8.8,4.4-15.4,11.8-22.4,18.5c-3.5,3.3-11.1,10.3-16.5,7.4c-2.5-1.4-4.2-5.6-5.5-7.9c-2.3-4.1-4.7-8-7.8-11.6
			c-6.6-7.6-16.5-12.2-26.6-9.9c-8.3,1.8-14,7.8-19.2,14.1c-1.7,2.1-4.1,5.2-5.9,6.5c-1.7,1.2-3.8,1.5-5.4,1.2
			c-6.6-0.9-7.6-8-9.3-14.3c-2.3-8.8-5.8-17.2-12.8-23.3c-7.9-6.8-18.9-8.7-28.4-3.9c-7.8,3.9-12.8,11.6-16.4,19.3
			c-1.5,3.1-2.7,6.5-4.8,9.2c-0.2,0.3-0.4,0.5-0.6,0.7c-0.2-0.8-0.5-1.6-0.6-2.3c-0.9-4-1.3-8-2.3-12c-2.6-9.9-8.6-18.8-18.2-22.9
			c-10.5-4.4-21.3-1.4-28.9,6.8c-2,2.2-2.5,3.4-4.2,3.4c-1.6,0-4.3-1.6-5.9-3.1c-6-5.8-8.3-15.7-11.8-23.1
			c-8.2-17.3-26.1-31.4-45.8-23.7c-19.4,7.6-27.9,29.4-26.6,49.1c1.4,21.6,11.9,40.1,18.7,60.2l0,0.1c3,9,2,18.9-2.6,27.2
			c-2.8,5-5.7,9.8-8.8,14.3c-54.2,80.4-106.5,158.8-106.5,239.2c0,41.9,33.6,170.2,65.1,300.4c1.4,25.8,0,51.9-4.2,78
			c-4.6,28.6-9.5,57.3-4.5,86.1c4.2,24.2,16.4,48.3,37.7,61.6c19.4,12.1,44.2,14.2,64.1,3.7c38.3,24.3,86.4,16.7,127.7,2.5
			c5-1.7,10-3.5,15.1-5.4h193.8c33,11.1,66.7,20.1,99.7,5.7c21.1-9.2,35.7-27.4,38.3-50.4c3.1-26.7-8-54.3-16.1-79.2
			c-0.1-0.2-0.1-0.4-0.2-0.5c-10.2-31.7-10.5-65.8-1.1-97.7C1315,1666.4,1328.5,1630.6,1343.7,1605.1z M932.3,1090.6
			C932.3,1090.6,932.3,1090.6,932.3,1090.6C933,1090.8,932.6,1090.9,932.3,1090.6z"/>
	</g>
	<g>
		<path class="st16" d="M896.6,729.2h15.7h16.2l18.8-9.3l25.1-4.5l24.1,3.1C996.4,718.5,956.3,668.3,896.6,729.2z"/>
		<path class="st16" d="M1145.1,718.5l24.1-3.1l25.1,4.5l18.8,9.3h16.2h15.7C1185.2,668.3,1145.1,718.5,1145.1,718.5z"/>
		<g>
			<path class="st17" d="M1005.6,725.6c-4.5-4.4-9.8-8-15.8-10.5c-1.5-0.6-3-1.2-4.6-1.7c-1.6-0.5-3.1-0.9-4.8-1.2
				c-3.2-0.7-6.5-1-9.8-1.1c-6.6-0.1-13.1,1-19.2,3c-3.1,1-6,2.2-8.9,3.5c-0.7,0.3-1.4,0.7-2.1,1.1c-0.7,0.4-1.4,0.7-2.1,1.1
				l-3.7,2.1c-0.6,0.4-1.2,0.6-1.7,1c-0.6,0.3-1.2,0.6-1.8,0.9c-1.2,0.5-2.4,1.1-3.6,1.6c-1.2,0.5-2.4,1-3.7,1.4l-1.9,0.6
				c-0.6,0.2-1.2,0.3-1.9,0.5c-5,1.3-10.2,1.8-15.6,1.2c-5.3-0.7-10.8-2.3-16-5.4c1.5,2.7,3.6,5,6,7c2.4,2,5.2,3.7,8.1,5
				c5.9,2.6,12.7,3.6,19.2,3.1c0.8-0.1,1.6-0.1,2.5-0.2l2.4-0.4c1.6-0.3,3.2-0.7,4.8-1.1c3.2-0.8,6.1-2,9.1-3.3
				c0.7-0.3,1.4-0.7,2.2-1l1.9-0.9c1.2-0.6,2.5-1.1,3.7-1.7c2.5-1.1,5-2,7.5-2.9c2.5-0.9,5-1.5,7.6-2c2.5-0.6,5.1-0.9,7.7-1.1
				c5.1-0.3,10.3,0,15.5,1.2c5.2,1.1,10.3,3.1,15.2,5.7c5,2.6,9.8,5.8,14.4,9.6c-1.1-2.8-2.7-5.5-4.4-8
				C1009.8,730.1,1007.8,727.8,1005.6,725.6z"/>
			<circle class="st17" cx="971.1" cy="739.1" r="25.2"/>
			<circle class="st18" cx="981" cy="733.5" r="9.3"/>
		</g>
		<g>
			<path class="st17" d="M1221.5,727.9c-0.6-0.2-1.3-0.3-1.9-0.5l-1.9-0.6c-1.2-0.4-2.5-0.9-3.7-1.4c-1.2-0.5-2.4-1.1-3.6-1.6
				c-0.6-0.3-1.2-0.6-1.8-0.9c-0.6-0.3-1.2-0.6-1.7-1l-3.7-2.1c-0.7-0.4-1.4-0.7-2.1-1.1c-0.7-0.4-1.4-0.7-2.1-1.1
				c-2.9-1.3-5.8-2.6-8.9-3.5c-6.1-2-12.7-3.1-19.2-3c-3.3,0.1-6.6,0.4-9.8,1.1c-1.6,0.3-3.2,0.7-4.8,1.2c-1.6,0.5-3.1,1.1-4.6,1.7
				c-6,2.5-11.3,6.1-15.8,10.5c-2.2,2.2-4.3,4.5-6,7c-1.8,2.5-3.3,5.1-4.4,8c4.6-3.8,9.5-7,14.4-9.6c5-2.6,10.1-4.5,15.2-5.7
				c5.1-1.2,10.3-1.5,15.5-1.2c2.6,0.2,5.1,0.5,7.7,1.1c2.5,0.5,5.1,1.2,7.6,2c2.5,0.8,5,1.8,7.5,2.9c1.2,0.5,2.5,1.1,3.7,1.7
				l1.9,0.9c0.7,0.3,1.4,0.7,2.2,1c2.9,1.3,5.9,2.5,9.1,3.3c1.6,0.5,3.2,0.8,4.8,1.1l2.4,0.4c0.8,0.1,1.6,0.2,2.5,0.2
				c6.5,0.5,13.3-0.4,19.2-3.1c2.9-1.3,5.7-3,8.1-5c2.4-2,4.5-4.3,6-7c-5.2,3-10.7,4.7-16,5.4
				C1231.7,729.7,1226.5,729.2,1221.5,727.9z"/>
			<circle class="st17" cx="1170.4" cy="739.1" r="25.2"/>
			<circle class="st18" cx="1180" cy="735.2" r="9.3"/>
		</g>
	</g>
	<g>
		<path class="st19" d="M1116.4,891.5l-23-17.4l-19.6,19.6l-19.6-19.6l-23,17.4l-13.8,9.8h-14.9c0,0,20.6,48,71.3,48
			c46.8,0,71.3-48,71.3-48h-14.9L1116.4,891.5z"/>
		<path class="st0" d="M1072.7,889.1h-22.8l-13.9,13.2c0,0,16.1,7,37.8,7c21.7,0,33.5-7.9,33.5-7.9l-12.7-12.3H1072.7z"/>
		<path class="st2" d="M1080.7,872.8c-4.2,2.9-9.7,2.9-14,0.2c-4-2.6-9.9-4.1-18.3-1.1c-19,6.8-28.6,29.5-45.9,29.5
			c0,0,31.9,5,43.3-2.3c11.4-7.3,28-2.9,28-2.9s16.6-4.4,28,2.9c11.4,7.3,43.3,2.3,43.3,2.3c-17.3,0-27.4-23-46.4-29.8
			C1090.4,868.6,1084.6,870.1,1080.7,872.8z"/>
	</g>
	<linearGradient id="SVGID_11_" gradientUnits="userSpaceOnUse" x1="1000" y1="732.364" x2="1000" y2="1058.3247">
		<stop  offset="0" style="stop-color:#332B2D"/>
		<stop  offset="1" style="stop-color:#231F20"/>
	</linearGradient>
	<path class="st20" d="M1392.2,795.2c-8.3-24.1-22.1-46-33.7-68.6c-7.2-14.1-14-28.3-20.5-42.8c-7.8-52.6-17.1-105.7-45.2-151.5
		c-8.2-13.4-17.9-25.9-29-36.8c-4-4-7.7-8.3-11.3-12.7c-8-9.8-17.6-18-28.1-24.6c-15.7-9.9-33.2-16.7-50.5-22.9
		c-18.5-6.6-37.2-12.7-56.3-17.4c-34.5-8.6-71.3-13.2-106.3-5.2c-46-9-94.6-0.8-136,26.2c-16.4,10.7-31.5,23.9-44.1,39.3
		c-12.3,15-22.1,32-32.4,48.5c-9.3,14.8-19.2,30-32.9,40.8c-14.4,11.3-31.8,14.8-48.6,20.1c-17.2,5.4-33.5,13.4-44,29.4
		c-8.9,13.6-11,30.7-10.1,46.8c1,17.1,4.8,33.8,6.5,50.8c0,0.3,0.1,0.6,0.1,0.9c-5.7,10-13,19.3-21.8,27.3
		c-12.5,11.4-26.8,21.3-35.9,35.8c-7.8,12.4-10,27.1-7.1,41.3c0.6,3,1.4,5.9,2.5,8.7c-0.7,7.8,0.5,15.8,4.3,23.7
		c7,14.7,20.6,24.4,30.9,36.3c0.7,0.8,1.3,1.6,1.9,2.4c1.9,8.2,2,16.6-1,24.9c-6.3,17.5-22,30.6-30.7,46.9
		c-15.6,29.5-18.7,71.4,9.4,94.9c8.4,7,18.8,11.6,29.5,12.6c8.8,6.3,18.6,11.1,28.5,12.9c19.7,3.7,38.9-3.6,57.3-10.2
		c8.6-3.1,17.4-6.4,26.4-7.8c2.1,0.1,4.2-0.6,5.9-1.8c3.2-1.8,5.5-5,5.5-9.4c0-0.8-0.1-1.6-0.3-2.4c-0.4-1.9-1.2-3.7-2.8-5.4
		c-16.4-18-39.8-44.7-24.9-71.1c5.9-10.3,14.7-18.4,21.7-27.8c7.6-10.2,12.8-21.2,13.9-34.2c2.1-23.7-10-45.5-18.1-66.7
		c-1.5-4.1-2.9-8.2-4.1-12.3c8-11,21.7-15.5,32.7-23.1c18.2-12.6,29.8-33.5,31.5-55.4c2.8-4.7,5.1-9.8,6.9-15.4
		c4.1-12.8,6.2-26,13.6-36.3c9.6-4.2,20.1-6.7,30.2-7.9c29.3-3.5,59.2,0.7,88.3-5.6c56.3-12,85.1-65.9,94.5-118.5
		c1.6-8.8,2.3-18.7,3.3-28.9c23.4,6.5,47.9,17.3,62.5,35.5c44.8,55.8,45.3,164.1,137.9,206.6c6.7,7.2,13.9,13.6,21.4,19.9
		c0.1,0.1,0.1,0.1,0.2,0.2c2.3,6.5,4,13.2,4.9,20c3.2,23.3-3.6,45.3-12.2,66.8c-8.6,21.5-17.8,42.7-19.6,66.1
		c-1.7,22.3,2.8,45.1,12.7,65.1c6.2,12.6,16.3,23.6,20.3,37.1c0.3,0.9,0.5,1.9,0.7,2.9c-14.5,17.8-40.7,19.4-59,6.7
		c-3.4-2.3-6.7-2.3-9.3-0.9c-9-3.6-19.2,9.5-11,18.5c24.4,27,56.8,51.2,94.1,48.4c16.7-1.2,33.1-7.1,45.6-19
		c13.4-12.7,19.1-31.8,18.4-50.4c-0.8-21-8.3-40.1-14.6-59.7c-6.1-18.7-10-37.2-3.4-56.3c10-29,32.9-51.3,38.4-81.8
		c1.2-2.3,2.4-4.6,3.4-7.1C1401.9,840.5,1399.5,816.3,1392.2,795.2z M645.5,937.8c-9.3,19.6-23.6,37.1-27.2,59.3
		c-3.3,20.6,3.1,40,15.6,55.9c-6.7-4.4-12.3-10.5-16.1-17.8c-10.5-20.3-7.1-44.5,2.7-64.3c7.6-15.4,20.9-28,29.1-43.1
		C648.4,931.3,647,934.6,645.5,937.8z M663.9,758.1c-10,16.7-29.6,24.4-42.1,38.8c-2.9,3.4-5.5,7-7.6,10.7c0-1.6,0-3.2,0.2-4.8
		c2-20.8,19.3-34.2,34.1-46.8c8.2-7,15.7-14.6,22.1-22.9C670.2,741.9,668.5,750.5,663.9,758.1z M805.6,783.7
		c-8.5,14-21.2,20.7-34.9,28.8c-4.4,2.6-8.5,5.6-12,9c-0.6-5.9-0.3-11.7,1.4-17.4c11.1-7.7,24.1-12.9,35.5-19.8
		c5.5-3.3,10.6-6.9,15.1-11C809.3,776.9,807.6,780.4,805.6,783.7z M1053.3,544.9c-3.3,31-9.7,62.7-26.5,89.5
		c-14.9,23.7-37.2,41.3-64.9,47.2c-30.4,6.5-61.9,1.4-92.5,6.2c15.1-5.2,31.9-5.7,47.6-7.8c18.9-2.5,36.9-8.1,53.5-17.5
		c31.4-17.8,56.1-47.4,67.2-81.8c4.3-13.4,6.3-27.4,8.7-41.3c2.4,0.5,4.9,1.1,7.4,1.6C1053.6,542.3,1053.4,543.6,1053.3,544.9z
		 M1306.6,899.9c-10.8,26-23.2,52.1-19.1,81.3c3.2,22.9,18.2,47.2,10.4,69.8c-4.8-11-12.5-20.4-17.9-31.1
		c-6.2-12.1-10.2-25.5-11.8-38.9c-3.1-27.2,4.9-51.9,15-76.8c9.6-23.6,18.9-47.6,16.9-73.6c-0.3-4.5-1-9-1.9-13.4
		c3.9,3.6,7.7,7.5,10.8,11.9C1324.2,850.3,1315.8,877.9,1306.6,899.9z M1388.3,835c-2.5-8.9-6.6-17.3-11.6-25.2
		c-16.6-25.9-27.8-54.9-32.6-85.3c-0.1-0.9-0.3-1.7-0.4-2.6c-0.1-0.9-0.3-1.8-0.4-2.7c9.4,18.8,19.8,37.1,29.1,55.9
		C1381.6,793.7,1389.1,814.1,1388.3,835z"/>
	<path class="st8" d="M1181,654.7c-40.8-1.3-75.2,26.9-83.7,64.8c-0.6,2.7-3,4.6-5.7,4.6h-48.9c-2.8,0-5.1-2-5.7-4.7
		c-8.3-37.1-41.4-64.9-81-64.9c-31,0-57.9,17-72.2,42.1c-6.2,10.8-17.8,17.4-30.3,17.4h-13.2c-2.6,6.4-4.4,13.4-6.4,20.4h36
		c1.7,0,3.1,1.4,3.1,3.1c0,0,0,0,0,0c0,45.8,37.2,83,83,83c45.8,0,83-37.2,83-83v0c0-2.3,1.9-4.1,4.1-4.1h48.1
		c2.3,0,4.1,1.9,4.1,4.1v0c0,45.8,37.2,83,83,83c47.2,0,85.1-39.3,82.9-87C1259.2,690.7,1224,656,1181,654.7z M955.9,812.8
		c-41.5,0-75.2-33.7-75.2-75.2c0-41.5,33.7-75.2,75.2-75.2c41.5,0,75.2,33.7,75.2,75.2C1031.1,779.2,997.5,812.8,955.9,812.8z
		 M1178.3,812.8c-41.5,0-75.2-33.7-75.2-75.2c0-41.5,33.7-75.2,75.2-75.2c41.5,0,75.2,33.7,75.2,75.2
		C1253.5,779.2,1219.8,812.8,1178.3,812.8z"/>
	<g>
		<g>
			<path class="st21" d="M833.9,1804c0-49.2-34.7-90.5-80.9-100.7c0.4,7.6,0.5,15.3,0.4,23c33.6,9.8,58.3,40.9,58.3,77.7
				c0,38.5-27,70.8-63.1,78.9c2.4,7.2,5.7,14.1,9.7,20.4C801.8,1891.3,833.9,1851.3,833.9,1804z"/>
			<path class="st21" d="M820.1,1273c0,44.6-36.3,80.9-80.9,80.9c-15.6,0-30.1-4.4-42.5-12.1c-2.1,7.5-3.9,15-5.4,22.5
				c14.3,7.5,30.6,11.8,47.8,11.8c56.8,0,103.1-46.2,103.1-103.1c0-41.3-24.4-77-59.6-93.4c-4.2,6.3-8.3,12.5-12.4,18.7
				C799.5,1210.4,820.1,1239.3,820.1,1273z"/>
			<g>
				<path class="st1" d="M946.5,1878.4c-36.3,0-65.9,29.6-65.9,65.9c0,0.1,0,0.3,0,0.4c7.3,1.4,14.7,2.1,22.3,2.2
					c0-0.9-0.1-1.7-0.1-2.6c0-24.1,19.6-43.7,43.7-43.7c18.7,0,34.6,11.8,40.9,28.3c0.5-0.2,0.9-0.3,1.4-0.5h21.6
					C1003.3,1899.7,977.3,1878.4,946.5,1878.4z"/>
			</g>
			<path class="st21" d="M1318.4,1850.4c-1.6-7.5-3.7-14.9-6-22.2c-43-1.8-77.4-37.4-77.4-80.8c0-44.6,36.3-80.9,80.9-80.9
				c0.1,0,0.2,0,0.3,0c2.7-7.6,5.5-14.8,8.3-21.8c-2.8-0.2-5.7-0.4-8.6-0.4c-56.8,0-103.1,46.2-103.1,103.1
				c0,56.8,46.2,103.1,103.1,103.1C1316.7,1850.5,1317.6,1850.4,1318.4,1850.4z"/>
			<path class="st21" d="M1073.8,1353.9c-56.8,0-103.1,46.2-103.1,103.1c0,56.8,46.2,103.1,103.1,103.1
				c56.8,0,103.1-46.2,103.1-103.1C1176.9,1400.1,1130.7,1353.9,1073.8,1353.9z M1073.8,1537.8c-44.6,0-80.9-36.3-80.9-80.9
				c0-44.6,36.3-80.9,80.9-80.9c44.6,0,80.9,36.3,80.9,80.9C1154.7,1501.6,1118.4,1537.8,1073.8,1537.8z"/>
			<g>
				<g>
					<path class="st1" d="M1153.3,1681.9c0-36.3-29.6-65.9-65.9-65.9c-36.3,0-65.9,29.6-65.9,65.9c0,36.3,29.6,65.9,65.9,65.9
						C1123.7,1747.8,1153.3,1718.2,1153.3,1681.9z M1043.7,1681.9c0-24.1,19.6-43.7,43.7-43.7c24.1,0,43.7,19.6,43.7,43.7
						c0,24.1-19.6,43.7-43.7,43.7C1063.3,1725.6,1043.7,1706,1043.7,1681.9z"/>
				</g>
			</g>
			<path class="st21" d="M1179.5,1283.3c-6.5,3.8-14,6-22.1,6c-24.1,0-43.7-19.6-43.7-43.7c0-9.9,3.3-19,8.8-26.3
				c-4.7-6.3-9.1-12.5-13.1-18.8c-11.1,11.8-17.9,27.7-17.9,45.1c0,36.3,29.6,65.9,65.9,65.9c14.4,0,27.8-4.7,38.6-12.5
				C1190.5,1293.9,1185,1288.6,1179.5,1283.3z"/>
			<g>
				<g>
					<path class="st1" d="M785.6,1412.2c-36.3,0-65.9,29.6-65.9,65.9c0,36.3,29.6,65.9,65.9,65.9c36.3,0,65.9-29.6,65.9-65.9
						C851.5,1441.7,821.9,1412.2,785.6,1412.2z M785.6,1521.8c-24.1,0-43.7-19.6-43.7-43.7c0-24.1,19.6-43.7,43.7-43.7
						s43.7,19.6,43.7,43.7C829.3,1502.2,809.7,1521.8,785.6,1521.8z"/>
				</g>
			</g>
			<g>
				<path class="st1" d="M1315.8,1461.7c12.6,0,24.3-3.5,34.4-9.7c-3.1-6.8-6.6-13.4-10.3-19.7c-6.9,4.6-15.2,7.3-24.1,7.3
					c-24.1,0-43.7-19.6-43.7-43.7c0-11.2,4.2-21.3,11.1-29.1c-4.9-3.8-9.7-7.3-14.3-10.2c-1.3-0.8-2.6-1.7-4-2.6
					c-9.4,11.4-15,26-15,41.8C1249.9,1432.1,1279.5,1461.7,1315.8,1461.7z"/>
			</g>
		</g>
	</g>
	<linearGradient id="SVGID_12_" gradientUnits="userSpaceOnUse" x1="945.5469" y1="1729.2991" x2="716.8952" y2="1935.5814">
		<stop  offset="0" style="stop-color:#DB746D"/>
		<stop  offset="1" style="stop-color:#C1504D"/>
	</linearGradient>
	<path class="st22" d="M778.9,1480.9c-10.9-33.8-16.8-69.1-16.9-104.6c-0.1-51.6,11.9-110.6,57.2-133.2
		c79.5-39.6,178.3-20.2,225.5,161.9c47.1,182.2,83.9,395.6,95,412.2c11,16.6,176.1,182.1,176.1,182.1h-309.1
		c0,0-100.7-88.2-124.6-182.1C863.3,1743.5,803.6,1557.3,778.9,1480.9z"/>
</g>
</svg>
